Coordinates
version=1
nRows=14
nColumns=40
inDegrees=yes

Units are S.I. units (second, meters, Newtons, ...)
Angles are in degrees.

endheader
time	pelvis_tilt	pelvis_list	pelvis_rotation	pelvis_tx	pelvis_ty	pelvis_tz	hip_flexion_r	hip_adduction_r	hip_rotation_r	knee_angle_r	knee_angle_r_beta	ankle_angle_r	subtalar_angle_r	mtp_angle_r	hip_flexion_l	hip_adduction_l	hip_rotation_l	knee_angle_l	knee_angle_l_beta	ankle_angle_l	subtalar_angle_l	mtp_angle_l	lumbar_extension	lumbar_bending	lumbar_rotation	arm_flex_r	arm_add_r	arm_rot_r	elbow_flex_r	pro_sup_r	wrist_flex_r	wrist_dev_r	arm_flex_l	arm_add_l	arm_rot_l	elbow_flex_l	pro_sup_l	wrist_flex_l	wrist_dev_l
     42.87500000	     -4.94788947	     -4.95392846	    -10.32174723	      0.98594596	      0.92640939	      0.53080232	     18.52443430	      4.06752460	     -6.60024330	     19.37215420	     19.37215420	      7.22670484	      0.81300051	     -3.67754051	      3.40099018	    -10.05105521	    -13.87058688	     32.86172902	     32.86172902	     13.97770534	    -15.77057843	     -7.23178093	    -10.35275877	     10.44695430	      0.52976488	      0.52813898	    -14.58710493	    -24.91196178	     38.96215807	     46.21921349	      0.00000000	      0.00000000	     27.76764823	    -20.03639111	     -6.74506301	     84.53722819	     48.10666500	      0.00000000	      0.00000000
     42.89314286	     -4.72621461	     -5.14225876	     -9.87005920	      0.98730539	      0.92733461	      0.53495870	     17.54093503	      4.40490833	     -6.91811646	     18.97664374	     18.97664374	      7.53218483	      0.79268155	     -3.66014362	      4.86292465	    -11.05527050	    -12.95577502	     36.60070547	     36.60070547	     12.26520366	    -16.71487095	     -7.78187083	    -10.40767856	     10.43766317	      0.62885011	      2.45230451	    -15.01995133	    -24.69873348	     39.80732640	     46.18626352	      0.00000000	      0.00000000	     26.86172347	    -19.25377350	     -6.11755507	     83.74110295	     48.04715088	      0.00000000	      0.00000000
     42.91128571	     -4.55627693	     -5.34064494	     -9.40840984	      0.98841245	      0.92799747	      0.53921355	     16.66377106	      4.83794939	     -6.96527435	     18.62546087	     18.62546087	      7.80254749	      0.26022465	     -3.54437702	      6.49006224	    -12.14465314	    -12.05865580	     40.33338817	     40.33338817	      9.51345604	    -17.75499070	    -10.23215594	    -10.33493416	     10.40329042	      0.72978743	      4.18537067	    -15.73323354	    -22.87294323	     40.98751365	     46.04602729	      0.00000000	      0.00000000	     26.05005121	    -18.76323246	     -4.56639785	     81.89884351	     47.92248064	      0.00000000	      0.00000000
     42.92942857	     -4.34125425	     -5.52791803	     -8.90163947	      0.98929059	      0.92849803	      0.54330873	     15.84931245	      5.21775113	     -7.11529095	     18.45247676	     18.45247676	      8.13677655	     -0.18471260	     -3.45085457	      8.37116088	    -13.10590063	    -10.77506661	     44.45232508	     44.45232508	      7.59856909	    -18.26708246	     -9.77455011	    -10.35399181	     10.32320868	      0.61243715	      6.23166915	    -16.13351054	    -22.22275593	     41.95857642	     45.98593192	      0.00000000	      0.00000000	     24.93574910	    -18.18803783	     -3.59456939	     80.36004073	     47.83159092	      0.00000000	      0.00000000
     42.94757143	     -4.14831790	     -5.67517366	     -8.37228144	      0.98991271	      0.92876063	      0.54724613	     15.17441755	      5.54281101	     -7.29590032	     18.45003231	     18.45003231	      8.56233226	     -0.64471842	     -3.25345584	     10.47505718	    -13.85436964	     -9.16657348	     48.67026981	     48.67026981	      6.10583121	    -18.55304481	     -7.46009807	    -10.35292153	     10.15908928	      0.66794966	      8.18417584	    -16.70455236	    -21.10757554	     42.77894741	     45.90950226	      0.00000000	      0.00000000	     23.97331526	    -17.45101876	     -2.32691254	     78.22541243	     47.71660166	      0.00000000	      0.00000000
     42.96571429	     -3.82785820	     -5.85966952	     -7.85174349	      0.99045020	      0.92892610	      0.55109070	     14.43522371	      5.85788516	     -7.59202039	     18.58628507	     18.58628507	      9.01351217	     -0.89385377	     -3.32677381	     12.36890067	    -14.58132926	     -7.65400786	     52.52254425	     52.52254425	      3.96207323	    -18.86841739	     -6.81574698	    -10.56689608	     10.01045625	      0.71872557	     10.27935590	    -17.06517197	    -20.97939763	     43.68685728	     45.88187992	      0.00000000	      0.00000000	     22.56731053	    -16.58127252	     -1.60757016	     76.99818425	     47.63988787	      0.00000000	      0.00000000
     42.98385714	     -3.75913748	     -5.86378844	     -7.29414059	      0.99050994	      0.92860619	      0.55459062	     14.22708733	      5.99858372	     -7.78618062	     19.09832825	     19.09832825	      9.68875628	     -1.45719830	     -2.79817184	     14.90229108	    -14.67309901	     -5.49381786	     56.66170869	     56.66170869	      4.17263143	    -18.83677106	      0.51450785	    -10.38716638	      9.67581538	      0.60696562	     12.33278707	    -17.56826313	    -19.64319019	     44.37246812	     45.80572970	      0.00000000	      0.00000000	     21.80573373	    -15.83291639	     -0.32449204	     72.82349327	     47.49242804	      0.00000000	      0.00000000
     43.00200000	     -3.55977374	     -5.89961044	     -6.76313395	      0.99056720	      0.92818016	      0.55796029	     13.95330947	      6.09846899	     -8.16298438	     19.77618688	     19.77618688	     10.47713227	     -1.66093683	     -2.38005653	     17.05128281	    -14.79684631	     -3.72280782	     60.14211755	     60.14211755	      3.82888404	    -18.91961032	      5.42153343	    -10.44829423	      9.36021905	      0.54176945	     14.33355403	    -17.92405416	    -19.06545590	     45.49638398	     45.75240559	      0.00000000	      0.00000000	     20.57477647	    -15.01507349	      0.56536476	     69.77840109	     47.39028330	      0.00000000	      0.00000000
     43.02014286	     -3.31455668	     -5.91094972	     -6.26472359	      0.99051457	      0.92757216	      0.56124983	     13.72585346	      6.17533095	     -8.42350539	     20.59894360	     20.59894360	     11.17776451	     -2.08947320	     -2.30672891	     18.89750029	    -14.93349451	     -2.32929050	     62.93858325	     62.93858325	      3.10551341	    -19.09457158	      7.85170805	    -10.57710182	      9.01579885	      0.16708126	     16.66056603	    -17.91882215	    -18.80598669	     46.65237472	     45.71264951	      0.00000000	      0.00000000	     18.98308257	    -14.46316993	      1.20373669	     66.65646293	     47.29277949	      0.00000000	      0.00000000
     43.03828571	     -3.10574985	     -5.98114003	     -5.78537086	      0.99036631	      0.92678339	      0.56431059	     13.56484089	      6.28712812	     -8.82021268	     21.48864931	     21.48864931	     12.12128513	     -2.24122811	     -1.65374983	     20.75950017	    -15.01880010	     -0.98964650	     65.43933765	     65.43933765	      3.83818741	    -19.14967504	     12.96375829	    -10.68891230	      8.72153672	      0.50067179	     18.52114553	    -18.45509335	    -18.33778959	     47.40165993	     45.68116867	      0.00000000	      0.00000000	     18.14650360	    -13.21409330	      1.79999614	     62.18950558	     47.19395247	      0.00000000	      0.00000000
     43.05642857	     -2.88931877	     -6.01615223	     -5.32797650	      0.99011717	      0.92574585	      0.56732999	     13.47664567	      6.37743236	     -9.07782924	     22.48436301	     22.48436301	     12.85397374	     -2.69842012	     -1.66824424	     22.30661267	    -15.25501802	     -0.15633999	     67.12753902	     67.12753902	      3.88021169	    -19.29725131	     14.22450209	    -10.86991320	      8.38888005	      0.13102276	     20.78663213	    -18.30750386	    -18.22225960	     48.72241373	     45.64153759	      0.00000000	      0.00000000	     16.25457136	    -12.79246918	      2.29598600	     59.20149713	     47.10451223	      0.00000000	      0.00000000
     43.07457143	     -2.61574965	     -6.03351147	     -4.90053236	      0.98985725	      0.92469812	      0.57005377	     13.34236848	      6.43465777	     -9.30191793	     23.51008543	     23.51008543	     13.70790538	     -3.12369919	     -1.30686592	     23.67398673	    -15.46591045	      0.43937351	     68.32587860	     68.32587860	      4.97129287	    -19.39400402	     16.86844457	    -11.05371303	      8.08194182	      0.03044528	     23.00297383	    -18.33975141	    -17.89279522	     49.80650667	     45.60306040	      0.00000000	      0.00000000	     14.92049842	    -12.02395460	      2.61816167	     54.60938483	     47.01629105	      0.00000000	      0.00000000
     43.09271429	     -2.35075856	     -6.09774792	     -4.49601080	      0.98945318	      0.92352161	      0.57259132	     13.23213883	      6.53596954	     -9.53432138	     24.56633072	     24.56633072	     14.78233777	     -3.40063944	     -0.35377351	     24.95581743	    -15.74782492	      0.86001088	     69.01044239	     69.01044239	      6.79534498	    -19.46017825	     20.16960078	    -11.32824644	      7.79550405	      0.62537898	     24.67955583	    -18.94362151	    -17.58062475	     50.82642487	     45.57202543	      0.00000000	      0.00000000	     14.29753481	    -10.74924354	      2.68285718	     49.13512549	     46.95458658	      0.00000000	      0.00000000
     43.11085714	     -2.02278868	     -6.19077514	     -4.09688768	      0.98915573	      0.92235711	      0.57495295	     12.93198037	      6.69709794	     -9.69265994	     25.36904608	     25.36904608	     15.41125415	     -3.86505095	     -0.56013849	     25.87636742	    -16.23069967	      0.86830553	     68.87777107	     68.87777107	      7.87948432	    -19.53156795	     20.16586056	    -11.73636820	      7.53528191	      0.97764766	     26.60466264	    -19.36260874	    -17.65974675	     51.83021770	     45.55098940	      0.00000000	      0.00000000	     12.08316268	    -10.23991847	      2.96593002	     47.52606989	     46.89053573	      0.00000000	      0.00000000
